<svg width="100" height="100" viewBox="0 0 100 100" fill="none" xmlns="http://www.w3.org/2000/svg">
<path d="M25.2 57.3C25.2 54.3667 26 51 27.6 47.2C29.2 43.4 31.2667 39.7 33.8 36.1667C39 29.3 43.5333 24.1 47.3333 20.6L49.8333 18.2C50.6667 19.0667 51.6 19.8667 52.6 20.6C53.9667 22 56.0667 24.3 58.8667 27.5667C61.6667 30.8333 64.1 33.7333 66.1 36.4C68.4667 39.7667 70.5 43.4 72.1333 47.2333C73.7667 51.0667 74.6 54.4333 74.6 57.3334C74.6 60.6667 73.9667 63.8333 72.6667 66.8667C71.3667 69.9 69.6333 72.5333 67.4333 74.7333C65.2333 76.9333 62.6 78.7 59.5333 80C56.4667 81.3 53.2333 81.9667 49.8333 81.9667C46.5 81.9667 43.3333 81.3334 40.3 80.0667C37.2667 78.8 34.6333 77.1 32.4333 74.9C30.2333 72.7333 28.4667 70.1 27.1667 67.0667C25.8667 64.0334 25.2 60.7667 25.2 57.3ZM32.7333 47.5333C32.7333 50.3 33.3 52.5 34.4667 54.1667C35.6333 55.8 37.4 56.6333 39.7667 56.6333C42.1667 56.6333 43.9333 55.8 45.1333 54.1667C46.3 52.5333 46.9 50.3333 46.9333 47.5333C46.9 44.7333 46.3 42.5333 45.1333 40.8667C43.9667 39.2333 42.1667 38.4 39.7667 38.4C37.4 38.4 35.6333 39.2333 34.4667 40.8667C33.3 42.5333 32.7333 44.7333 32.7333 47.5333ZM37.9667 47.5333V46.3667C37.9667 46.1 38 45.7333 38.0333 45.2667C38.0667 44.8 38.1 44.4333 38.2 44.2C38.3 43.9667 38.3667 43.6667 38.5 43.4C38.6333 43.1333 38.8 42.9 39 42.8C39.2333 42.6667 39.4667 42.6 39.7667 42.6C40.2333 42.6 40.6 42.7333 40.8667 43C41.1333 43.2667 41.3333 43.7 41.4333 44.2667C41.5333 44.8667 41.6 45.3333 41.6333 45.7667C41.6667 46.2 41.6667 46.7667 41.6667 47.5C41.6667 48.2667 41.6667 48.8333 41.6333 49.2333C41.6 49.6333 41.5333 50.1333 41.4333 50.7333C41.3333 51.3 41.1333 51.7333 40.8667 52C40.6 52.2667 40.2333 52.4 39.7667 52.4C39.4667 52.4 39.2333 52.3333 39 52.2C38.7665 52.0667 38.589 51.8537 38.5 51.6C38.3667 51.3333 38.2667 51.0333 38.2 50.8C38.1333 50.5333 38.0667 50.1667 38.0333 49.7333C38 49.2667 37.9667 48.9 37.9667 48.6667V47.5333ZM39.9333 73.3667H44.3333L60.9667 37.5667H56.4667L39.9333 73.3667ZM54.2667 63.4C54.3 66.2 54.9333 68.4 56.1 70.0667C57.2667 71.7 59.0667 72.5333 61.4333 72.5333C63.8333 72.5333 65.6 71.7 66.7667 70.0667C67.9333 68.4333 68.5 66.2 68.5333 63.4C68.5 60.6 67.9333 58.4 66.7667 56.7667C65.6 55.1334 63.8333 54.3 61.4333 54.3C59.0667 54.3 57.2667 55.1334 56.1 56.7667C54.9 58.4 54.3 60.6 54.2667 63.4ZM59.5 63.4C59.5 62.6334 59.5 62.0667 59.5333 61.6667C59.5667 61.2667 59.6333 60.7667 59.7333 60.1667C59.8333 59.5667 60.0333 59.1667 60.3 58.9C60.5667 58.6333 60.9333 58.5 61.4 58.5C61.7 58.5 61.9667 58.5667 62.2 58.7C62.4333 58.8334 62.6 59.0333 62.7333 59.3333C62.8667 59.6333 62.9667 59.9 63.0667 60.1334C63.1667 60.3667 63.2 60.7333 63.2333 61.2L63.2667 62.2667V64.5667L63.2333 65.6334L63.0667 66.7L62.7333 67.5L62.2 68.1334L61.4 68.3333C60.9333 68.3333 60.5667 68.2 60.3 67.9333C60.0333 67.6667 59.8333 67.2333 59.7333 66.6667C59.6333 66.0667 59.5667 65.5667 59.5333 65.1667C59.5 64.7667 59.5 64.1667 59.5 63.4Z" fill="white"/>
</svg>
