<svg width="150" height="150" viewBox="0 0 150 150" fill="none" xmlns="http://www.w3.org/2000/svg">
<path d="M118.75 50C122.065 50 125.245 51.317 127.589 53.6612C129.933 56.0054 131.25 59.1848 131.25 62.5V104.75C135.062 108.188 137.5 113.188 137.5 118.75C137.5 129.125 129.125 137.5 118.75 137.5C108.375 137.5 100 129.125 100 118.75C100 113.188 102.437 108.188 106.25 104.75V62.5C106.25 55.625 111.875 50 118.75 50ZM118.75 56.25C115.312 56.25 112.5 59.0625 112.5 62.5V68.75H125V62.5C125 59.0625 122.187 56.25 118.75 56.25ZM75 35.5625L43.75 63.6875V112.5H88.125L87.5 118.75L88.125 125H31.25V75H12.5L75 18.75L102.5 43.5C99.3125 46.25 96.875 49.8125 95.3125 53.8125L75 35.5625Z" fill="white"/>
</svg>
