<svg width="82" height="82" viewBox="0 0 82 82" fill="none" xmlns="http://www.w3.org/2000/svg">
<path d="M41 6.83331C36.5132 6.83331 32.0703 7.71706 27.925 9.4341C23.7797 11.1511 20.0132 13.6678 16.8405 16.8405C10.433 23.248 6.83333 31.9384 6.83333 41C6.83333 50.0615 10.433 58.752 16.8405 65.1595C20.0132 68.3321 23.7797 70.8488 27.925 72.5659C32.0703 74.2829 36.5132 75.1666 41 75.1666C50.0616 75.1666 58.752 71.5669 65.1595 65.1595C71.567 58.752 75.1667 50.0615 75.1667 41C75.1667 36.5131 74.2829 32.0703 72.5659 27.925C70.8488 23.7797 68.3321 20.0132 65.1595 16.8405C61.9868 13.6678 58.2203 11.1511 54.075 9.4341C49.9297 7.71706 45.4868 6.83331 41 6.83331ZM41 13.6666C48.2492 13.6666 55.2016 16.5464 60.3276 21.6724C65.4536 26.7984 68.3333 33.7507 68.3333 41C68.3333 49.2 64.9167 56.375 59.1083 61.5C54.325 57.0583 47.8333 54.6666 41 54.6666C34.1667 54.6666 28.0167 57.0583 22.8917 61.5C17.0833 56.375 13.6667 49.2 13.6667 41C13.6667 33.7507 16.5464 26.7984 21.6724 21.6724C26.7984 16.5464 33.7507 13.6666 41 13.6666ZM47.8333 20.1241C46.535 20.1583 45.305 21.0125 44.7583 22.345L40.3508 33.3808L40.0092 34.1666C37.5833 34.6108 35.5675 36.2166 34.645 38.4716C33.2442 41.9908 34.9525 45.9541 38.4717 47.355C41.9908 48.7558 45.9542 47.0475 47.355 43.5283C48.2433 41.2733 47.8333 38.6766 46.3642 36.7633L46.7058 35.875L51.1133 24.9075L51.1475 24.805C51.8308 23.0625 50.9767 21.0808 49.2342 20.3633C48.79 20.1925 48.3458 20.1241 47.8333 20.1241ZM34.1667 20.5C33.2605 20.5 32.3915 20.8599 31.7507 21.5007C31.11 22.1414 30.75 23.0105 30.75 23.9166C30.75 24.8228 31.11 25.6918 31.7507 26.3326C32.3915 26.9733 33.2605 27.3333 34.1667 27.3333C35.0728 27.3333 35.9419 26.9733 36.5826 26.3326C37.2234 25.6918 37.5833 24.8228 37.5833 23.9166C37.5833 23.0105 37.2234 22.1414 36.5826 21.5007C35.9419 20.8599 35.0728 20.5 34.1667 20.5ZM23.9167 30.75C23.0105 30.75 22.1415 31.1099 21.5007 31.7507C20.86 32.3914 20.5 33.2605 20.5 34.1666C20.5 35.0728 20.86 35.9418 21.5007 36.5826C22.1415 37.2233 23.0105 37.5833 23.9167 37.5833C24.8228 37.5833 25.6919 37.2233 26.3326 36.5826C26.9734 35.9418 27.3333 35.0728 27.3333 34.1666C27.3333 33.2605 26.9734 32.3914 26.3326 31.7507C25.6919 31.1099 24.8228 30.75 23.9167 30.75ZM58.0833 30.75C57.1772 30.75 56.3081 31.1099 55.6674 31.7507C55.0266 32.3914 54.6667 33.2605 54.6667 34.1666C54.6667 35.0728 55.0266 35.9418 55.6674 36.5826C56.3081 37.2233 57.1772 37.5833 58.0833 37.5833C58.9895 37.5833 59.8585 37.2233 60.4993 36.5826C61.14 35.9418 61.5 35.0728 61.5 34.1666C61.5 33.2605 61.14 32.3914 60.4993 31.7507C59.8585 31.1099 58.9895 30.75 58.0833 30.75Z" fill="white"/>
</svg>
