<svg width="30" height="30" viewBox="0 0 30 30" fill="none" xmlns="http://www.w3.org/2000/svg">
<path d="M8.75 22.5C7.19034 22.5 5.69457 21.9074 4.59173 20.8525C3.48889 19.7976 2.86932 18.3668 2.86932 16.875C2.86932 15.3832 3.48889 13.9524 4.59173 12.8975C5.69457 11.8426 7.19034 11.25 8.75 11.25C9.11835 9.60897 10.196 8.16685 11.7457 7.24089C12.5131 6.7824 13.3733 6.46443 14.2772 6.30514C15.1811 6.14585 16.1111 6.14835 17.0139 6.3125C17.9167 6.47665 18.7748 6.79924 19.5391 7.26185C20.3034 7.72446 20.959 8.31802 21.4685 9.00866C21.9779 9.6993 22.3312 10.4735 22.5082 11.287C22.6852 12.1005 22.6824 12.9374 22.5 13.75H23.75C24.9103 13.75 26.0231 14.2109 26.8436 15.0314C27.6641 15.8519 28.125 16.9647 28.125 18.125C28.125 19.2853 27.6641 20.3981 26.8436 21.2186C26.0231 22.0391 24.9103 22.5 23.75 22.5H22.5" stroke="white" stroke-width="3.33333" stroke-linecap="round" stroke-linejoin="round"/>
<path d="M16.25 17.5L13.75 22.5H17.5L15 27.5" stroke="white" stroke-width="3.33333" stroke-linecap="round" stroke-linejoin="round"/>
</svg>
