<svg width="30" height="30" viewBox="0 0 30 30" fill="none" xmlns="http://www.w3.org/2000/svg">
<path d="M11.25 15C11.9125 15.175 12.3125 15.8625 12.1375 16.525L10.5125 22.5625C10.3375 23.2375 9.65 23.625 8.9875 23.45C8.82854 23.4102 8.67934 23.3385 8.54897 23.2392C8.41859 23.1399 8.30976 23.0152 8.22908 22.8725C8.14841 22.7299 8.09759 22.5723 8.07969 22.4095C8.0618 22.2466 8.07722 22.0817 8.125 21.925L9.725 15.8875C9.9 15.2125 10.5875 14.825 11.25 15ZM16.25 15C16.9125 15.175 17.3125 15.8625 17.1375 16.525L14.55 26.1875C14.375 26.875 13.6875 27.25 13.0125 27.075C12.35 26.875 11.95 26.2125 12.125 25.5375L14.725 15.8875C14.9 15.2125 15.5875 14.825 16.25 15ZM21.25 15C21.9125 15.175 22.3125 15.8625 22.1375 16.525L20.5125 22.5625C20.3375 23.2375 19.65 23.625 18.9875 23.45C18.8285 23.4102 18.6793 23.3385 18.549 23.2392C18.4186 23.1399 18.3098 23.0152 18.2291 22.8725C18.1484 22.7299 18.0976 22.5723 18.0797 22.4095C18.0618 22.2466 18.0772 22.0817 18.125 21.925L19.725 15.8875C19.9 15.2125 20.5875 14.825 21.25 15ZM21.25 12.5V11.25C21.25 9.5924 20.5915 8.00269 19.4194 6.83058C18.2473 5.65848 16.6576 5 15 5C11.875 5 9.3125 7.275 8.825 10.2375C8.4125 10.0875 7.9625 10 7.5 10C6.50544 10 5.55161 10.3951 4.84835 11.0983C4.14509 11.8016 3.75 12.7554 3.75 13.75C3.75 15.1375 4.5 16.35 5.625 17V16.9875C6.25 17.3375 6.425 18.125 6.0875 18.7C5.7375 19.2875 5 19.5 4.375 19.15V19.1625C3.42319 18.6159 2.63282 17.8274 2.08402 16.8769C1.53521 15.9263 1.24748 14.8476 1.25 13.75C1.25 12.0924 1.90848 10.5027 3.08058 9.33058C4.25269 8.15848 5.8424 7.5 7.5 7.5C8.75 4.5625 11.625 2.5 15 2.5C19.2875 2.5 22.8 5.825 23.125 10.0375L23.75 10C25.0761 10 26.3479 10.5268 27.2855 11.4645C28.2232 12.4021 28.75 13.6739 28.75 15C28.75 16.875 27.75 18.4625 26.25 19.325C25.625 19.6625 24.8875 19.4625 24.5375 18.8625C24.2 18.2625 24.375 17.5 25 17.15V17.1625C25.75 16.7375 26.25 15.925 26.25 15C26.25 14.337 25.9866 13.7011 25.5178 13.2322C25.0489 12.7634 24.413 12.5 23.75 12.5H21.25Z" fill="white"/>
</svg>
