<svg width="60" height="60" viewBox="0 0 60 60" fill="none" xmlns="http://www.w3.org/2000/svg">
<path d="M30 50C24.4167 50 19.6875 48.0625 15.8125 44.1875C11.9375 40.3125 10 35.5833 10 30C10 24.4167 11.9375 19.6875 15.8125 15.8125C19.6875 11.9375 24.4167 10 30 10C32.875 10 35.625 10.5942 38.25 11.7825C40.875 12.9692 43.125 14.6667 45 16.875V10H50V27.5H32.5V22.5H43C41.6667 20.1667 39.8442 18.3333 37.5325 17C35.2192 15.6667 32.7083 15 30 15C25.8333 15 22.2917 16.4583 19.375 19.375C16.4583 22.2917 15 25.8333 15 30C15 34.1667 16.4583 37.7083 19.375 40.625C22.2917 43.5417 25.8333 45 30 45C33.2083 45 36.1042 44.0833 38.6875 42.25C41.2708 40.4167 43.0833 38 44.125 35H49.375C48.2083 39.4167 45.8333 43.0208 42.25 45.8125C38.6667 48.6042 34.5833 50 30 50Z" fill="white"/>
</svg>
