<svg width="100" height="100" viewBox="0 0 100 100" fill="none" xmlns="http://www.w3.org/2000/svg">
<path d="M45.8333 20.8334V4.16669H54.1667V20.8334H45.8333ZM73.5416 32.2917L67.8125 26.5625L79.4792 14.5834L85.3125 20.5209L73.5416 32.2917ZM79.1666 54.1667V45.8334H95.8333V54.1667H79.1666ZM45.8333 95.8334V79.1667H54.1667V95.8334H45.8333ZM26.4583 32.0834L14.5833 20.5209L20.5208 14.6875L32.2917 26.4584L26.4583 32.0834ZM79.375 85.4167L67.8125 73.4375L73.4375 67.8125L85.3125 79.2709L79.375 85.4167ZM4.16666 54.1667V45.8334H20.8333V54.1667H4.16666ZM20.5208 85.4167L14.6875 79.4792L26.3542 67.8125L29.375 70.625L32.3958 73.5417L20.5208 85.4167ZM50 75C43.0555 75 37.1528 72.5695 32.2917 67.7084C27.4305 62.8472 25 56.9445 25 50C25 43.0556 27.4305 37.1528 32.2917 32.2917C37.1528 27.4306 43.0555 25 50 25C56.9444 25 62.8472 27.4306 67.7083 32.2917C72.5694 37.1528 75 43.0556 75 50C75 56.9445 72.5694 62.8472 67.7083 67.7084C62.8472 72.5695 56.9444 75 50 75Z" fill="white"/>
</svg>
