<svg width="100" height="100" viewBox="0 0 100 100" fill="none" xmlns="http://www.w3.org/2000/svg">
<g clip-path="url(#clip0_208_2)">
<path d="M41.6667 8.33331V17.75L50 23.2916V16.6666H91.6667V79.1666H70.8333V87.5H100V8.33331H41.6667ZM31.25 20.8333L0 41.6666V87.5H62.5V41.6666L31.25 20.8333ZM58.3333 25V28.875L65.0417 33.3333H66.6667V25H58.3333ZM75 25V33.3333H83.3333V25H75ZM31.25 31.25L54.1667 45.8333V79.1666H41.6667V54.1666H20.8333V79.1666H8.33333V45.8333L31.25 31.25ZM75 41.6666V50H83.3333V41.6666H75ZM75 58.3333V66.6666H83.3333V58.3333H75Z" fill="white"/>
</g>
<defs>
<clipPath id="clip0_208_2">
<rect width="100" height="100" fill="white"/>
</clipPath>
</defs>
</svg>
